<?xml version="1.0" encoding="iso-8859-1"?>
<!-- Generator: Adobe Illustrator 19.0.0, SVG Export Plug-In . SVG Version: 6.00 Build 0)  -->
<svg version="1.1" id="Layer_1" xmlns="http://www.w3.org/2000/svg" xmlns:xlink="http://www.w3.org/1999/xlink" x="0px" y="0px"
	 viewBox="0 0 512 512" style="enable-background:new 0 0 512 512;" xml:space="preserve">
<circle style="fill:#9DE8F7;" cx="256" cy="256" r="196"/>
<path d="M256,0C114.4,0,0,114.4,0,256s114.4,256,256,256s256-114.4,256-256S397.6,0,256,0z M256,496C124,496,16,388,16,256
	S124,16,256,16s240,108,240,240S388,496,256,496z"/>
<path d="M316,346.4h-39.2l-15.2-40.8h-71.2L176,346.4h-38.4l69.6-177.6h37.6L316,346.4z M250.4,276l-24.8-66.4l-24,66.4H250.4z"/>
<path d="M337.6,254.4v-33.6h-34.4v-23.2h34.4V164H360v33.6h34.4v23.2H360v33.6H337.6z"/>
<g>
</g>
<g>
</g>
<g>
</g>
<g>
</g>
<g>
</g>
<g>
</g>
<g>
</g>
<g>
</g>
<g>
</g>
<g>
</g>
<g>
</g>
<g>
</g>
<g>
</g>
<g>
</g>
<g>
</g>
</svg>
